<svg xmlns="http://www.w3.org/2000/svg" viewBox="0 0 477.66 72.07"><defs><style>.d{fill:currentColor;}</style></defs><g id="a"></g><g id="b"><g id="c"><path class="d" d="M465.75,19.39c1.19-.69,2.52-1.04,3.98-1.04s2.84,.34,4.04,1.02c1.21,.68,2.15,1.62,2.85,2.81s1.04,2.52,1.04,3.98-.35,2.79-1.04,3.98-1.64,2.13-2.85,2.81c-1.2,.68-2.55,1.02-4.04,1.02s-2.79-.34-3.98-1.02c-1.19-.68-2.13-1.62-2.83-2.81-.69-1.19-1.04-2.51-1.04-3.94s.35-2.79,1.04-3.98,1.63-2.13,2.83-2.83Zm7.44,.9c-1.02-.59-2.17-.88-3.46-.88s-2.39,.3-3.41,.88c-1.02,.59-1.83,1.4-2.41,2.43-.59,1.03-.89,2.19-.89,3.47s.29,2.39,.89,3.42c.59,1.02,1.39,1.83,2.41,2.41,1.02,.59,2.16,.88,3.41,.88s2.44-.29,3.46-.88c1.02-.59,1.83-1.4,2.41-2.43,.59-1.03,.89-2.18,.89-3.43s-.29-2.4-.89-3.43c-.59-1.03-1.39-1.84-2.41-2.43Zm-.81,2.14c.56,.5,.84,1.14,.84,1.92,0,.66-.19,1.21-.59,1.65s-.93,.73-1.61,.86l2.24,3.77h-1.3l-2.08-3.57h-1.92v3.57h-1.14v-8.95h3.3c.94,0,1.69,.25,2.26,.75Zm-2.3,3.65c.58,0,1.05-.15,1.41-.45,.37-.3,.55-.73,.55-1.28s-.18-.93-.55-1.24c-.37-.3-.84-.45-1.41-.45h-2.12v3.42h2.12Z"></path><g><path class="d" d="M0,56.4V3.43H16.27c7.86,0,14.45,2.54,19.77,7.61,5.32,5.07,7.98,11.37,7.98,18.87s-2.66,13.8-7.98,18.87c-5.32,5.07-11.91,7.61-19.77,7.61H0Zm8.73-8.13h7.54c5.57,0,10.11-1.74,13.61-5.22,3.51-3.48,5.26-7.86,5.26-13.13s-1.75-9.65-5.26-13.13c-3.5-3.48-8.04-5.22-13.61-5.22h-7.54V48.27Z"></path><path class="d" d="M93.54,56.4V19.1h8.2v5.07c2.34-3.88,6.12-5.82,11.34-5.82,4.33,0,7.79,1.42,10.37,4.25,2.59,2.83,3.88,6.62,3.88,11.34v22.45h-8.21v-21.11c0-2.98-.7-5.31-2.09-6.97-1.39-1.67-3.29-2.5-5.67-2.5-2.84,0-5.15,1.07-6.94,3.21s-2.69,5.15-2.69,9.03v18.35h-8.2Z"></path><path class="d" d="M152.02,57.15c-5.07,0-9.34-1.89-12.8-5.67-3.46-3.78-5.18-8.36-5.18-13.73s1.73-9.95,5.18-13.73c3.46-3.78,7.72-5.67,12.8-5.67,2.54,0,4.87,.56,7.01,1.68,2.14,1.12,3.78,2.47,4.92,4.07v-5h8.21V56.4h-8.21v-5c-1.14,1.59-2.79,2.95-4.92,4.07-2.14,1.12-4.48,1.68-7.01,1.68Zm-6.49-10.89c2.09,2.29,4.75,3.43,7.98,3.43s5.89-1.14,7.98-3.43c2.09-2.29,3.13-5.12,3.13-8.5s-1.04-6.22-3.13-8.51c-2.09-2.29-4.75-3.43-7.98-3.43s-5.89,1.14-7.98,3.43c-2.09,2.29-3.13,5.12-3.13,8.51s1.04,6.22,3.13,8.5Z"></path><path class="d" d="M229.68,56.4v-20.96c0-3.03-.56-5.4-1.68-7.09-1.12-1.69-2.77-2.54-4.96-2.54-2.64,0-4.75,1.02-6.34,3.06-1.59,2.04-2.44,4.9-2.54,8.58v18.95h-8.21v-20.96c0-3.03-.56-5.4-1.68-7.09-1.12-1.69-2.77-2.54-4.96-2.54-2.74,0-4.91,1.07-6.53,3.21-1.62,2.14-2.43,5.15-2.43,9.03v18.35h-8.21V19.1h8.21v5.07c2.29-3.88,5.82-5.82,10.59-5.82,5.62,0,9.47,2.46,11.56,7.38,1.04-2.34,2.65-4.15,4.81-5.45s4.54-1.94,7.12-1.94c4.18,0,7.46,1.42,9.85,4.25,2.39,2.83,3.58,6.67,3.58,11.49v22.31h-8.21Z"></path><path class="d" d="M251.39,10.97c-1.49,0-2.79-.53-3.88-1.6-1.09-1.07-1.64-2.37-1.64-3.92s.55-2.77,1.64-3.84c1.09-1.07,2.39-1.61,3.88-1.61s2.84,.54,3.88,1.61c1.04,1.07,1.57,2.35,1.57,3.84s-.52,2.85-1.57,3.92c-1.04,1.07-2.34,1.6-3.88,1.6Zm-4.1,45.43V19.1h8.2V56.4h-8.2Z"></path><path class="d" d="M282.43,57.15c-5.62,0-10.31-1.85-14.06-5.56-3.76-3.7-5.63-8.32-5.63-13.84s1.87-10.13,5.63-13.84c3.75-3.7,8.44-5.56,14.06-5.56,3.83,0,7.27,.92,10.33,2.76s5.41,4.35,7.05,7.54l-7.16,3.88c-.95-1.99-2.31-3.58-4.1-4.78-1.79-1.19-3.83-1.79-6.12-1.79-3.28,0-5.99,1.13-8.13,3.39-2.14,2.26-3.21,5.06-3.21,8.39s1.07,6.13,3.21,8.39c2.14,2.26,4.85,3.39,8.13,3.39,2.29,0,4.33-.6,6.12-1.79s3.16-2.79,4.1-4.77l7.16,3.88c-1.64,3.18-3.99,5.7-7.05,7.54s-6.5,2.76-10.33,2.76Z"></path><path class="d" d="M395.56,57.15c-5.67,0-10.33-1.81-13.99-5.45s-5.48-8.28-5.48-13.95,1.84-10.13,5.52-13.84c3.68-3.7,8.33-5.56,13.95-5.56,5.17,0,9.46,1.64,12.87,4.92,3.41,3.28,5.11,7.81,5.11,13.58,0,1-.03,1.89-.07,2.69h-29.32c.2,3.03,1.37,5.48,3.51,7.35,2.14,1.87,4.8,2.8,7.98,2.8,4.78,0,8.33-1.89,10.67-5.67l6.27,4.48c-3.58,5.77-9.25,8.65-17.01,8.65Zm-11.04-23.57h20.74c-.45-2.59-1.61-4.61-3.47-6.08s-4.04-2.2-6.53-2.2-4.89,.72-6.9,2.16c-2.01,1.44-3.29,3.48-3.84,6.12Z"></path><path class="d" d="M441.07,57.15c-2.54,0-4.89-.56-7.05-1.68-2.16-1.12-3.82-2.47-4.96-4.07v5h-8.21V.45h8.21V24.1c1.14-1.59,2.8-2.95,4.96-4.07s4.51-1.68,7.05-1.68c5.07,0,9.34,1.89,12.79,5.67,3.46,3.78,4.62,8.36,4.62,13.73s-1.16,9.95-4.62,13.73c-3.46,3.78-7.72,5.67-12.79,5.67Zm-1.49-7.46c3.23,0,5.89-1.14,7.98-3.43,2.09-2.29,3.13-5.12,3.13-8.5s-1.04-6.22-3.13-8.51c-2.09-2.29-4.75-3.43-7.98-3.43s-5.97,1.14-8.06,3.43c-2.09,2.29-3.13,5.12-3.13,8.51s1.04,6.22,3.13,8.5c2.09,2.29,4.77,3.43,8.06,3.43Z"></path></g><polygon class="d" points="61.96 72.07 71.13 72.07 88.34 19.1 79.17 19.1 61.96 72.07"></polygon><polygon class="d" points="67.71 54.39 58.54 54.39 47.08 19.1 56.26 19.1 67.71 54.39"></polygon><polygon class="d" points="333.76 3.43 321.1 42.38 308.45 3.43 299.34 3.43 316.55 56.4 325.66 56.4 342.86 3.43 333.76 3.43"></polygon><polygon class="d" points="368.17 3.43 355.52 42.38 347.42 17.45 342.86 31.46 350.96 56.4 350.96 56.4 360.07 56.4 360.07 56.4 377.28 3.43 368.17 3.43"></polygon></g></g></svg>